<svg width="111" height="33" viewBox="0 0 111 33" fill="none" xmlns="http://www.w3.org/2000/svg">
<mask id="mask0" mask-type="alpha" maskUnits="userSpaceOnUse" x="0" y="0" width="111" height="33">
<rect width="111" height="33" fill="#C4C4C4"/>
</mask>
<g mask="url(#mask0)">
<path d="M8 21.0897V12.691C8 11.7599 8.17787 10.8907 8.53361 10.0833C8.88626 9.27283 9.3611 8.56598 9.95813 7.96277C10.5552 7.36265 11.2589 6.88472 12.0694 6.52897C12.8799 6.17632 13.7507 6 14.6818 6H18.0366C18.9677 6 19.8369 6.17632 20.6443 6.52897C21.4548 6.88472 22.1616 7.36265 22.7648 7.96277C23.365 8.56598 23.8429 9.27283 24.1986 10.0833C24.5513 10.8907 24.7276 11.7599 24.7276 12.691H19.7209C19.7209 12.2363 19.5616 11.8481 19.243 11.5264C18.9244 11.2016 18.5222 11.0392 18.0366 11.0392H14.6818C14.2054 11.0392 13.8079 11.2016 13.4893 11.5264C13.1706 11.8481 13.0113 12.2363 13.0113 12.691V21.0897C13.0113 21.5444 13.1706 21.9357 13.4893 22.2636C13.8079 22.5915 14.2054 22.7555 14.6818 22.7555H18.0366C18.5099 22.7555 18.9089 22.5915 19.2337 22.2636C19.5585 21.9357 19.7209 21.5444 19.7209 21.0897H24.7276C24.7276 22.0208 24.5513 22.89 24.1986 23.6974C23.8429 24.5079 23.365 25.2116 22.7648 25.8087C22.1616 26.4057 21.4579 26.8805 20.6536 27.2332C19.8493 27.5889 18.977 27.7668 18.0366 27.7668H14.6818C13.7507 27.7668 12.8799 27.5889 12.0694 27.2332C11.2589 26.8805 10.5552 26.4057 9.95813 25.8087C9.3611 25.2116 8.88626 24.5079 8.53361 23.6974C8.17787 22.89 8 22.0208 8 21.0897ZM30.9686 27.7668H25.9573V6H30.9686V14.3615H37.6782V6H42.6849V27.7668H37.6782V19.4007H30.9686V27.7668ZM48.9258 27.7668H43.9145L49.7286 6H49.7935H54.7724H54.8327L60.6468 27.7668H55.6354L52.2806 15.2756L48.9258 27.7668ZM66.9156 27.7668H61.8764V12.691C61.8764 11.7599 62.0527 10.8907 62.4054 10.0833C62.7611 9.27283 63.2421 8.56598 63.8484 7.96277C64.4547 7.36265 65.1631 6.88472 65.9736 6.52897C66.7841 6.17632 67.6549 6 68.586 6C69.3748 6 70.125 6.13147 70.8365 6.39441C71.551 6.65735 72.1914 7.01618 72.7575 7.47092C73.3359 7.01618 73.9809 6.65735 74.6924 6.39441C75.407 6.13147 76.1587 6 76.9475 6C77.8786 6 78.7494 6.17632 79.5599 6.52897C80.3703 6.88472 81.0756 7.36265 81.6758 7.96277C82.279 8.56598 82.7569 9.27283 83.1096 10.0833C83.4653 10.8907 83.6432 11.7599 83.6432 12.691V27.7668H78.6318V12.691C78.6318 12.2363 78.471 11.8481 78.1493 11.5264C77.8245 11.2016 77.4239 11.0392 76.9475 11.0392C76.4711 11.0392 76.0736 11.2016 75.755 11.5264C75.4364 11.8481 75.277 12.2363 75.277 12.691V27.7668H70.2704V12.691C70.2704 12.2363 70.108 11.8481 69.7832 11.5264C69.4583 11.2016 69.0593 11.0392 68.586 11.0392C68.1096 11.0392 67.7121 11.2016 67.3935 11.5264C67.0749 11.8481 66.9156 12.2363 66.9156 12.691V27.7668ZM89.8841 27.7668H84.8728V6H89.8841H94.9047C95.8359 6 96.7066 6.17632 97.5171 6.52897C98.3276 6.88472 99.0329 7.36265 99.633 7.96277C100.236 8.56598 100.716 9.27283 101.071 10.0833C101.424 10.8907 101.6 11.7599 101.6 12.691C101.6 13.6222 101.424 14.493 101.071 15.3034C100.716 16.1139 100.236 16.8223 99.633 17.4286C99.0329 18.0349 98.3307 18.5159 97.5264 18.8717C96.7221 19.2243 95.8482 19.4007 94.9047 19.4007H89.8841V27.7668ZM89.8841 11.0392V14.3615H94.9047C95.3811 14.3615 95.7817 14.2022 96.1065 13.8836C96.4313 13.5649 96.5937 13.1674 96.5937 12.691C96.5937 12.2363 96.4329 11.8481 96.1112 11.5264C95.7925 11.2016 95.3904 11.0392 94.9047 11.0392H89.8841Z" fill="url(#paint0_linear)"/>
</g>
<defs>
<linearGradient id="paint0_linear" x1="8" y1="6" x2="8" y2="41.7289" gradientUnits="userSpaceOnUse">
<stop stop-color="#F5515F"/>
<stop offset="1" stop-color="#9F041B"/>
</linearGradient>
</defs>
</svg>
